<?xml version="1.0" encoding="utf-8"?>
<!-- Generator: Adobe Illustrator 23.0.0, SVG Export Plug-In . SVG Version: 6.00 Build 0)  -->
<svg version="1.1" id="Layer_1" xmlns="http://www.w3.org/2000/svg" xmlns:xlink="http://www.w3.org/1999/xlink" x="0px" y="0px"
	 viewBox="0 0 500 500" style="enable-background:new 0 0 500 500;" xml:space="preserve">
<style type="text/css">
	.st0{opacity:0.7;fill:#FFFFFF;enable-background:new    ;}
	.st1{fill:#34689C;}
	.st2{fill:none;stroke:#263238;stroke-linecap:round;stroke-linejoin:round;}
	.st3{fill:#34689C;stroke:#263238;stroke-linecap:round;stroke-linejoin:round;}
	.st4{fill:#FFFFFF;stroke:#263238;stroke-linecap:round;stroke-linejoin:round;}
	.st5{fill:none;stroke:#263238;stroke-width:2;stroke-linecap:round;stroke-linejoin:round;}
	.st6{fill:none;stroke:#263238;stroke-linecap:round;stroke-linejoin:round;stroke-dasharray:0.9984,2.9953;}
	.st7{fill:none;stroke:#263238;stroke-linecap:round;stroke-linejoin:round;stroke-dasharray:0.9981,2.9944;}
	.st8{fill:#F7941D;}
	.st9{fill:none;stroke:#FFFFFF;stroke-linecap:round;stroke-linejoin:round;}
	.st10{clip-path:url(#SVGID_2_);}
	.st11{opacity:0.3;fill-opacity:0.7;enable-background:new    ;}
	.st12{fill:#263238;}
	.st13{clip-path:url(#SVGID_4_);}
	.st14{fill:#FFFFFF;}
	.st15{clip-path:url(#SVGID_6_);}
	.st16{opacity:0.2;fill-opacity:0.7;enable-background:new    ;}
	.st17{clip-path:url(#SVGID_8_);}
	.st18{clip-path:url(#SVGID_10_);}
	.st19{fill:#757575;stroke:#263238;stroke-linecap:round;stroke-linejoin:round;}
	.st20{fill:#999999;stroke:#263238;stroke-linecap:round;stroke-linejoin:round;}
	.st21{fill:none;stroke:#263238;stroke-linecap:round;stroke-linejoin:round;stroke-dasharray:0.978,2.9341;}
	.st22{fill:none;stroke:#263238;stroke-linecap:round;stroke-linejoin:round;stroke-dasharray:1,3;}
</style>
<g id="freepik--background-simple--inject-10">
	<path class="st0" d="M67.93,167.09c0,0-27.88,72,11.3,144.5s119.88,110.8,184.47,143.55s131.66,16.8,163.53-36.84
		s-11.84-91.93-11.9-168.42s11.45-96.74-30-161.36s-143.06-78.93-219.9-31S67.93,167.09,67.93,167.09z"/>
	<path class="st1" d="M69,431.66h211.19c0.85-1.36,1.71-2.72,2.59-4.05c22.72-34.58,59.1-59.24,98.83-70.81
		c17.8-5.18,37.08-8.26,51.38-20.06c14.72-12.13,21.48-31.49,24.4-50.34c3.55-22.82,1.63-48.41-13.86-65.54
		c-18.19-20.11-48.67-22.37-72.37-35.55c-40.79-22.7-56.6-74.39-93.71-102.71C254,64.71,222.36,57.78,194,61.7
		c-40.19,5.57-78,32.5-89.35,72c-3.26,11.5-4.43,23.5-3.44,35.42c1.81,23.55,6.88,47.4,2.1,70.53c-5.27,25.49-21.85,47-31.76,71.09
		c-12.34,30-14,63.6-8.77,95.58C64.18,414.92,66.26,423.39,69,431.66z"/>
	<path class="st0" d="M69,431.66h211.19c0.85-1.36,1.71-2.72,2.59-4.05c22.72-34.58,59.1-59.24,98.83-70.81
		c17.8-5.18,37.08-8.26,51.38-20.06c14.72-12.13,21.48-31.49,24.4-50.34c3.55-22.82,1.63-48.41-13.86-65.54
		c-18.19-20.11-48.67-22.37-72.37-35.55c-40.79-22.7-56.6-74.39-93.71-102.71C254,64.71,222.36,57.78,194,61.7
		c-40.19,5.57-78,32.5-89.35,72c-3.26,11.5-4.43,23.5-3.44,35.42c1.81,23.55,6.88,47.4,2.1,70.53c-5.27,25.49-21.85,47-31.76,71.09
		c-12.34,30-14,63.6-8.77,95.58C64.18,414.92,66.26,423.39,69,431.66z"/>
</g>
<g id="freepik--Floor--inject-10">
	<line class="st2" x1="41.99" y1="431.66" x2="460.31" y2="431.66"/>
</g>
<g id="freepik--Graphics--inject-10">
	<path class="st2" d="M279,113.39v-15.7l-11.76-1c-0.69-2.46-1.66-4.82-2.9-7.05l7.59-9l-11.1-11.1l-9,7.59
		c-2.21-1.24-4.56-2.22-7-2.91l-1-11.76H228l-1,11.76c-2.44,0.69-4.79,1.67-7,2.91l-9-7.59l-11.1,11.1l7.59,9
		c-1.24,2.23-2.21,4.59-2.9,7.05l-11.76,1v15.7l11.76,1c0.69,2.44,1.66,4.79,2.9,7l-7.59,9l11.1,11.1l9-7.59
		c2.21,1.24,4.56,2.22,7,2.91l1,11.76h15.7l1-11.76c2.46-0.69,4.82-1.67,7.05-2.91l9,7.59l11.1-11.1l-7.59-9
		c1.24-2.21,2.21-4.56,2.9-7L279,113.39z M235.9,123.78c-10.07,0-18.24-8.17-18.24-18.24s8.17-18.24,18.24-18.24
		c10.07,0,18.24,8.17,18.24,18.24c-0.01,10.08-8.18,18.25-18.26,18.24c-0.01,0-0.01,0-0.02,0H235.9z"/>
	<path class="st2" d="M447.69,266.84v-7.52l-5.64-0.49c-0.33-1.18-0.8-2.31-1.39-3.38l3.64-4.33l-5.3-5.32l-4.32,3.64
		c-1.07-0.6-2.2-1.06-3.38-1.39l-0.49-5.64h-7.53l-0.48,5.64c-1.18,0.33-2.31,0.79-3.38,1.39l-4.33-3.64l-5.32,5.32l3.64,4.33
		c-0.6,1.07-1.07,2.2-1.4,3.38l-5.64,0.49v7.52l5.64,0.49c0.33,1.18,0.8,2.31,1.4,3.38l-3.67,4.29l5.32,5.32l4.33-3.64
		c1.07,0.6,2.2,1.06,3.38,1.39l0.48,5.64h7.53l0.49-5.64c1.18-0.33,2.31-0.79,3.38-1.39l4.32,3.64l5.33-5.32l-3.64-4.33
		c0.59-1.07,1.06-2.2,1.39-3.38L447.69,266.84z M427.02,271.84c-4.83,0.01-8.75-3.91-8.76-8.74s3.91-8.75,8.74-8.76
		c4.83-0.01,8.75,3.91,8.76,8.74c0,0,0,0.01,0,0.01c-0.01,4.83-3.93,8.75-8.76,8.74L427.02,271.84z"/>
	<path class="st2" d="M442,129.8c2.55-11.05-4.33-22.07-15.38-24.62c-3.29-0.76-6.72-0.7-9.98,0.18
		c-5.34-9.48-17.36-12.83-26.84-7.48c-5.81,3.27-9.56,9.26-9.98,15.91c-8.72-1.67-17.15,4.05-18.81,12.77
		c-0.08,0.41-0.14,0.82-0.19,1.23c-4.94,0.52-8.53,4.95-8.01,9.89c0.45,4.3,3.9,7.67,8.21,8.03h75.28c4.97-0.04,8.97-4.1,8.93-9.07
		C445.21,134,444.03,131.5,442,129.8z"/>
	<line class="st2" x1="400.63" y1="138.83" x2="400.63" y2="159.58"/>
	<line class="st2" x1="400.63" y1="126.39" x2="400.63" y2="134.68"/>
	<line class="st2" x1="400.63" y1="118.63" x2="400.63" y2="123.07"/>
	<polyline class="st2" points="396.71,157.16 400.63,162.01 404.55,157.16 	"/>
	<path class="st2" d="M212.64,373.15c2.55-11.05-4.35-22.08-15.41-24.63c-3.29-0.76-6.71-0.69-9.96,0.19
		c-5.33-9.48-17.34-12.83-26.82-7.5c-5.82,3.28-9.58,9.28-9.99,15.94c-0.99-0.19-1.99-0.29-3-0.29c-8.19-0.01-15.08,6.14-16,14.28
		c-4.94,0.52-8.53,4.94-8.01,9.89c0.45,4.3,3.89,7.67,8.2,8.03H207c4.97-0.05,8.96-4.13,8.9-9.1c-0.03-2.64-1.21-5.13-3.23-6.81
		H212.64z"/>
	<line class="st2" x1="171.24" y1="385.15" x2="171.24" y2="364.41"/>
	<line class="st2" x1="171.24" y1="397.6" x2="171.24" y2="389.3"/>
	<line class="st2" x1="171.24" y1="405.36" x2="171.24" y2="400.92"/>
	<polyline class="st2" points="175.16,366.83 171.24,361.98 167.32,366.83 	"/>
</g>
<g id="freepik--Window--inject-10">
	<path class="st3" d="M53.48,109.9h251.45c2.34,0,4.24,1.9,4.24,4.24V126l0,0H49.24l0,0v-11.86C49.24,111.8,51.14,109.9,53.48,109.9
		z"/>
	<rect x="60.62" y="128.97" class="st4" width="262.71" height="184.87"/>
	<path class="st4" d="M327.35,117.94c0,2.21-1.79,4-4,4s-4-1.79-4-4s1.79-4,4-4S327.35,115.73,327.35,117.94z"/>
	<path class="st4" d="M313.19,117.94c0,2.21-1.79,4-4,4s-4-1.79-4-4s1.79-4,4-4S313.19,115.73,313.19,117.94z"/>
	<path class="st4" d="M299,117.94c0,2.21-1.79,4-4,4s-4-1.79-4-4s1.79-4,4-4S299,115.73,299,117.94z"/>
	<line class="st5" x1="315.37" y1="136.9" x2="304.97" y2="136.9"/>
	<line class="st5" x1="315.37" y1="141.12" x2="304.97" y2="141.12"/>
	<line class="st5" x1="315.37" y1="145.34" x2="304.97" y2="145.34"/>
	<line class="st5" x1="78.81" y1="245.98" x2="157.54" y2="245.98"/>
	<line class="st5" x1="78.81" y1="252.19" x2="157.54" y2="252.19"/>
	<line class="st5" x1="78.81" y1="258.51" x2="140.89" y2="258.51"/>
	<line class="st2" x1="245.76" y1="131.05" x2="245.76" y2="131.55"/>
	<line class="st6" x1="245.76" y1="134.55" x2="245.76" y2="308.78"/>
	<line class="st2" x1="245.76" y1="310.28" x2="245.76" y2="310.78"/>
	<line class="st2" x1="63.78" y1="272.38" x2="64.28" y2="272.38"/>
	<line class="st7" x1="67.27" y1="272.38" x2="317.31" y2="272.38"/>
	<line class="st2" x1="318.81" y1="272.38" x2="319.31" y2="272.38"/>
	<rect x="244.04" y="270.65" class="st4" width="3.45" height="3.45"/>
	<line class="st2" x1="231.99" y1="239.24" x2="185.93" y2="239.24"/>
	<path class="st2" d="M232.88,260.54c0,0,0-21.41-23.92-21.41S185,260.54,185,260.54"/>
	<circle class="st3" cx="232.88" cy="260.54" r="2.02"/>
	<path class="st3" d="M183,260.54c0-1.1,0.9-2,2-2s2,0.9,2,2s-0.9,2-2,2S183,261.64,183,260.54z"/>
	<rect x="231.11" y="237.36" class="st3" width="3.54" height="3.54"/>
	<rect x="207.19" y="237.36" class="st3" width="3.54" height="3.54"/>
	<rect x="183.27" y="237.36" class="st3" width="3.54" height="3.54"/>
	<path class="st8" d="M107.43,174.87v-7.08l-5.29-0.45c-0.31-1.11-0.75-2.17-1.31-3.18l3.42-4.06l-5-5l-4.07,3.42
		c-1-0.56-2.07-1-3.18-1.31l-0.46-5.3h-7.06l-0.46,5.3c-1.11,0.31-2.17,0.75-3.17,1.31l-4.07-3.42l-5,5l3.42,4.06
		c-0.56,1-1,2.07-1.31,3.18l-5.3,0.45v7.08l5.3,0.45c0.31,1.11,0.75,2.17,1.31,3.18l-3.42,4.06l5,5l4.07-3.42
		c0.99,0.56,2.05,1,3.15,1.31l0.46,5.3h7.07l0.46-5.3c1.11-0.31,2.17-0.75,3.17-1.31l4.07,3.42l5-5l-3.42-4.06
		c0.55-1.01,0.99-2.07,1.31-3.18L107.43,174.87z M88,179.55c-4.54,0-8.22-3.68-8.22-8.22s3.68-8.22,8.22-8.22s8.22,3.68,8.22,8.22
		S92.54,179.55,88,179.55L88,179.55z"/>
	<path class="st8" d="M131.47,190.73v-4.84l-3.63-0.32c-0.21-0.76-0.51-1.48-0.89-2.17l2.34-2.78l-3.43-3.42l-2.78,2.34
		c-0.69-0.38-1.41-0.68-2.17-0.9L120.6,175h-4.84l-0.32,3.63c-0.76,0.22-1.48,0.52-2.17,0.9l-2.78-2.34l-3.43,3.42l2.35,2.78
		c-0.39,0.68-0.69,1.41-0.9,2.17l-3.63,0.32v4.84l3.63,0.31c0.21,0.76,0.51,1.49,0.9,2.17l-2.35,2.8l3.43,3.42l2.78-2.34
		c0.69,0.38,1.41,0.68,2.17,0.9l0.32,3.62h4.84l0.31-3.62c0.76-0.22,1.48-0.52,2.17-0.9l2.78,2.34l3.43-3.42l-2.29-2.79
		c0.38-0.68,0.68-1.41,0.89-2.17L131.47,190.73z M118.18,193.93c-3.11,0.01-5.63-2.51-5.64-5.62c-0.01-3.11,2.51-5.63,5.62-5.64
		c3.11-0.01,5.63,2.51,5.64,5.62c0,0.01,0,0.01,0,0.02C123.79,191.41,121.28,193.92,118.18,193.93z"/>
	<line class="st5" x1="255.64" y1="284.14" x2="294.37" y2="284.14"/>
	<line class="st5" x1="255.64" y1="290.35" x2="294.37" y2="290.35"/>
	<line class="st5" x1="255.64" y1="296.67" x2="277.72" y2="296.67"/>
	<path class="st3" d="M204.61,299.25h-20.39c-2.76,0-5-2.24-5-5l0,0c0-2.76,2.24-5,5-5h20.39c2.76,0,5,2.24,5,5l0,0
		C209.61,297.01,207.37,299.25,204.61,299.25z"/>
	<path class="st3" d="M242.61,299.25h-20.39c-2.76,0-5-2.24-5-5l0,0c0-2.76,2.24-5,5-5h20.39c2.76,0,5,2.24,5,5l0,0
		C247.61,297.01,245.37,299.25,242.61,299.25z"/>
	<rect x="258.47" y="191.97" class="st4" width="43.24" height="43.24"/>
	<line class="st2" x1="258.47" y1="191.97" x2="301.71" y2="235.21"/>
	<line class="st2" x1="301.71" y1="191.97" x2="258.47" y2="235.21"/>
	<polygon class="st4" points="275.43,142.88 275.43,152.97 270.98,157.42 260.89,157.42 260.89,142.88 	"/>
	<polygon class="st4" points="275.43,152.97 270.98,157.42 270.98,152.97 	"/>
	<polygon class="st4" points="120.8,220.91 120.8,231 116.35,235.46 106.26,235.46 106.26,220.91 	"/>
	<polygon class="st4" points="120.8,231 116.35,235.46 116.35,231 	"/>
	<polygon class="st4" points="65.86,283.08 65.86,293.17 61.41,297.62 51.31,297.62 51.31,283.08 	"/>
	<polygon class="st4" points="65.86,293.17 61.41,297.62 61.41,293.17 	"/>
</g>
<g id="freepik--Screens--inject-10">
	<rect x="295.01" y="166.28" class="st8" width="53.66" height="33.63"/>
	<rect x="295.01" y="166.28" class="st3" width="53.66" height="5.11"/>
	<line class="st9" x1="300.48" y1="175.7" x2="314.2" y2="175.7"/>
	<line class="st9" x1="307.34" y1="179.53" x2="331.08" y2="179.53"/>
	<line class="st9" x1="304.31" y1="183.1" x2="311.3" y2="183.1"/>
	<line class="st9" x1="307.34" y1="187.31" x2="323.33" y2="187.31"/>
	<line class="st9" x1="300.48" y1="191.13" x2="314.2" y2="191.13"/>
	<rect x="93.2" y="301.59" class="st8" width="53.66" height="33.63"/>
	<rect x="93.2" y="301.59" class="st3" width="53.66" height="5.11"/>
	<line class="st9" x1="98.68" y1="311.02" x2="112.39" y2="311.02"/>
	<line class="st9" x1="105.53" y1="314.84" x2="129.27" y2="314.84"/>
	<line class="st9" x1="102.5" y1="318.41" x2="109.49" y2="318.41"/>
	<line class="st9" x1="105.53" y1="322.62" x2="121.52" y2="322.62"/>
	<line class="st9" x1="98.68" y1="326.45" x2="112.39" y2="326.45"/>
</g>
<g id="freepik--speech-bubble--inject-10">
	<path class="st3" d="M167,58h-49.3c-1.2,0.01-2.17,0.98-2.18,2.18v23c0.01,1.2,0.98,2.17,2.18,2.17h22.1l2.52,9l2.53-9H167
		c1.2,0,2.17-0.97,2.18-2.17v-23C169.17,58.98,168.2,58.01,167,58z"/>
	<line class="st5" x1="123.7" y1="64.58" x2="160.95" y2="64.58"/>
	<line class="st5" x1="123.7" y1="69.3" x2="160.95" y2="69.3"/>
	<line class="st5" x1="123.7" y1="74.02" x2="160.95" y2="74.02"/>
	<line class="st5" x1="123.7" y1="78.74" x2="151.77" y2="78.74"/>
</g>
<g id="freepik--Character--inject-10">
	<path class="st4" d="M247.87,221.58c-5.29,0.45-12-5.87-12-5.87c-0.46,0.47-1.21,0.48-1.68,0.03c-0.08-0.08-0.15-0.17-0.21-0.27
		c-0.86-1.24-4.59-4.11-4.8-6.59s4.19-6.5,4.19-6.5c-3.39,0.92-3.75-1.07-3.75-1.07s5.71-4.71,7.71-4.84
		c0.78-0.05,4.18,1.91,7.47,4.55c3.44,2.77,9.9,12.52,9.9,12.52s21.85,15.87,27.37,19.93c7.29,5.36,15.93,14.87,15.93,14.87
		s29,13.08,37,20.27l-10.82,25.62c0,0-26.37-17.67-29-22.15s-5.27-1.79-7.91-4.72s-5.17-6.28-5.17-6.28
		c-4.7-2.27-8.96-5.34-12.59-9.08c-6.16-6.33-11.59-16-15-21.82C252.74,226.99,250.51,224.09,247.87,221.58z"/>
	<path class="st4" d="M249.48,217.84c0,0-7.87-1.91-8.55-7.1c-0.3-1.32-0.88-2.55-1.69-3.63c0,0-7.34-0.36-6.88-3.35l9.8-0.87
		c3.57,1.37,6.57,3.9,8.53,7.18"/>
	<path class="st2" d="M235.86,215.71c0.35-0.65,0.47-1.4,0.33-2.12c0,0,2.16-0.4,1.92-2.31c0,0,3.2-0.39,1.13-4.17"/>
	<path class="st2" d="M238.11,211.28c0,0-4.31-3.19-4.79-4.65"/>
	<path class="st2" d="M236.19,213.59c0,0-4.59-2.8-4.67-4.43"/>
	<path class="st2" d="M237.24,199.21c0,0-1.46,2.62-3.88,3.17"/>
	<path class="st2" d="M236.51,200.23c0.77,0.4,1.49,0.88,2.16,1.43"/>
	<path class="st8" d="M404.12,288.8c-11.32-4.79-22.99-8.69-34.91-11.66c-17.56-4.11-46-7.78-46-7.78s7.82,79.8,5.76,84.6
		s-14.42,20.92-14.42,20.92s66.89,26.08,78.55,28.3s5.58-38.25,5.58-38.25S411,313.49,404.12,288.8z"/>
	<path class="st4" d="M380.11,280.23c0,0,1.59,3-2.59,4.57c-10.83,4-22.37,0.47-21.14-3.77c0.47-1.62,3.15,0,3-6
		c-0.07-0.92-0.32-1.83-0.73-2.66c-0.76-1.62-1.69-3.17-2.75-4.61c-1.16-1.61-2.39-3.15-3.71-4.63c0,0,17.19-11,29.94,0
		C382.11,263.08,377.37,265.48,380.11,280.23z"/>
	<path class="st1" d="M401.41,422.36c-6.77,11-41.12,16.21-59.87,15.72s-72.7-26-76.36-31.44c-3.39-5-11.72-21.57,1.12-31.58
		c1.09-0.84,2.25-1.59,3.46-2.24c8.79-4.76,67.25,10.25,67.25,10.25s3.62-2.29,4.95-2.12c4.08,0.52,7,3.82,15.24,6.17
		c5.77,1.65,21.52-4.69,31.58,0.76c1.12,0.6,2.15,1.34,3.06,2.22C401.24,399.08,408.17,411.33,401.41,422.36z"/>
	<g>
		<defs>
			<path id="SVGID_1_" d="M401.41,422.36c-6.77,11-41.12,16.21-59.87,15.72s-72.7-26-76.36-31.44c-3.39-5-11.72-21.57,1.12-31.58
				c1.09-0.84,2.25-1.59,3.46-2.24c8.79-4.76,67.25,10.25,67.25,10.25s3.62-2.29,4.95-2.12c4.08,0.52,7,3.82,15.24,6.17
				c5.77,1.65,21.52-4.69,31.58,0.76c1.12,0.6,2.15,1.34,3.06,2.22C401.24,399.08,408.17,411.33,401.41,422.36z"/>
		</defs>
		<clipPath id="SVGID_2_">
			<use xlink:href="#SVGID_1_"  style="overflow:visible;"/>
		</clipPath>
		<g class="st10">
			<path class="st11" d="M388.78,387.88c-10.31-0.69-19.5,1.47-25.92,5.26c-7.61,4.5-43.55,21.81-43.55,21.81
				c0.08-1.86,2.08-5.61,2.08-5.61c-3.38-3-12.22-5.35-12.22-5.35c-6.85-5.85-34-23.3-42.87-28.93c1.09-0.84,2.25-1.59,3.46-2.24
				c8.79-4.76,67.25,10.25,67.25,10.25s3.62-2.29,4.95-2.12c4.08,0.52,7,3.82,15.24,6.17C363,388.77,378.72,382.43,388.78,387.88z"
				/>
		</g>
	</g>
	<path class="st2" d="M401.41,422.36c-6.77,11-41.12,16.21-59.87,15.72s-72.7-26-76.36-31.44c-3.39-5-11.72-21.57,1.12-31.58
		c1.09-0.84,2.25-1.59,3.46-2.24c8.79-4.76,67.25,10.25,67.25,10.25s3.62-2.29,4.95-2.12c4.08,0.52,7,3.82,15.24,6.17
		c5.77,1.65,21.52-4.69,31.58,0.76c1.12,0.6,2.15,1.34,3.06,2.22C401.24,399.08,408.17,411.33,401.41,422.36z"/>
	<path class="st4" d="M390.87,432.32l0.86,3.77c0,0-2.3,6.52-12.41,7.59s-16.1,3.3-21,3.59c-2.56,0.2-5.14,0.16-7.69-0.12l-1-1.48
		L390.87,432.32z"/>
	<path class="st12" d="M332.16,431.92l17.52,13.75c8.44-0.72,16.83-1.98,25.12-3.76l0,0c8.3-1.92,15.55-4.67,15.94-8.45
		c0.61-5.74-5.53-7.31-12.82-7.09c-1.36,0-2.76,0.14-4.17,0.28c-11.67,1.25-26.51-5.19-26.51-5.19L332.16,431.92z"/>
	<g>
		<defs>
			<path id="SVGID_3_" d="M332.16,431.92l17.52,13.75c8.44-0.72,16.83-1.98,25.12-3.76l0,0c8.3-1.92,15.55-4.67,15.94-8.45
				c0.61-5.74-5.53-7.31-12.82-7.09c-1.36,0-2.76,0.14-4.17,0.28c-11.67,1.25-26.51-5.19-26.51-5.19L332.16,431.92z"/>
		</defs>
		<clipPath id="SVGID_4_">
			<use xlink:href="#SVGID_3_"  style="overflow:visible;"/>
		</clipPath>
		<g class="st13">
			<path class="st8" d="M390.75,433.32c-3.4,1.27-6.66,2.87-9.74,4.8c0,0-16.27,8.37-41.28-0.25l-7.57-5.95l15.08-10.47
				c0,0,14.83,6.45,26.51,5.19c1.41-0.15,2.81-0.25,4.17-0.28C385.16,426.14,391.25,427.68,390.75,433.32z"/>
		</g>
	</g>
	<path class="st2" d="M332.16,431.92l17.52,13.75c8.44-0.72,16.83-1.98,25.12-3.76l0,0c8.3-1.92,15.55-4.67,15.94-8.45
		c0.61-5.74-5.53-7.31-12.82-7.09c-1.36,0-2.76,0.14-4.17,0.28c-11.67,1.25-26.51-5.19-26.51-5.19L332.16,431.92z"/>
	<path class="st14" d="M348.49,437.34c-3.16,0.51,0.31,7,4.59,5S351.65,436.82,348.49,437.34z"/>
	<g>
		<defs>
			<path id="SVGID_5_" d="M348.49,437.34c-3.16,0.51,0.31,7,4.59,5S351.65,436.82,348.49,437.34z"/>
		</defs>
		<clipPath id="SVGID_6_">
			<use xlink:href="#SVGID_5_"  style="overflow:visible;"/>
		</clipPath>
		<g class="st15">
			<path class="st16" d="M354.42,441.31c-2.29-0.28-4.56-0.68-6.81-1.19c-0.6-1.27-0.46-2.57,0.88-2.78
				C351.14,436.9,355.6,439.35,354.42,441.31z"/>
		</g>
	</g>
	<path class="st2" d="M348.49,437.34c-3.16,0.51,0.31,7,4.59,5S351.65,436.82,348.49,437.34z"/>
	<path class="st14" d="M374.8,441.9c8.3-1.92,15.55-4.67,15.94-8.45c0.61-5.74-5.53-7.31-12.82-7.09
		C377.6,426.67,370.53,433.5,374.8,441.9z"/>
	<g>
		<defs>
			<path id="SVGID_7_" d="M374.8,441.9c8.3-1.92,15.55-4.67,15.94-8.45c0.61-5.74-5.53-7.31-12.82-7.09
				C377.6,426.67,370.53,433.5,374.8,441.9z"/>
		</defs>
		<clipPath id="SVGID_8_">
			<use xlink:href="#SVGID_7_"  style="overflow:visible;"/>
		</clipPath>
		<g class="st17">
			<path class="st11" d="M390.75,433.32c-3.4,1.27-6.66,2.87-9.74,4.8c-2.19,1.01-4.49,1.78-6.85,2.29
				c-2.8-7.7,3.46-13.76,3.76-14.05C385.16,426.14,391.25,427.68,390.75,433.32z"/>
		</g>
	</g>
	<path class="st2" d="M374.8,441.9c8.3-1.92,15.55-4.67,15.94-8.45c0.61-5.74-5.53-7.31-12.82-7.09
		C377.6,426.67,370.53,433.5,374.8,441.9z"/>
	<path class="st4" d="M368.88,434.77h0.05c0.47,0.02,0.88-0.34,0.9-0.82c0,0,0-0.01,0-0.01c0.28-2.46,1.33-4.76,3-6.59
		c0.34-0.33,0.34-0.88,0-1.22c0,0,0,0,0,0c-0.34-0.33-0.88-0.33-1.22,0c-1.96,2.13-3.18,4.83-3.47,7.71
		C368.1,434.3,368.42,434.71,368.88,434.77z"/>
	<path class="st4" d="M365.41,435h0.07c0.47,0.01,0.87-0.36,0.88-0.84c0,0,0-0.01,0-0.01c0.2-2.5,1.12-4.88,2.66-6.86
		c0.34-0.34,0.33-0.89-0.02-1.23c-0.34-0.34-0.89-0.33-1.23,0.02c-0.03,0.04-0.07,0.07-0.09,0.11c-1.78,2.28-2.85,5.03-3.05,7.92
		C364.61,434.57,364.95,434.96,365.41,435z"/>
	<path class="st4" d="M361.26,434.54L361.26,434.54c0.47,0.05,0.89-0.3,0.94-0.77c0,0,0,0,0-0.01c0.27-3,2.85-6.93,2.88-7
		c0.26-0.4,0.16-0.94-0.24-1.21c-0.4-0.26-0.93-0.16-1.2,0.24c-0.12,0.17-2.86,4.29-3.17,7.77c-0.06,0.48,0.27,0.91,0.75,0.98
		C361.23,434.54,361.25,434.54,361.26,434.54z"/>
	<path class="st4" d="M357.34,434.13c0.08,0.01,0.15,0.01,0.23,0c0.47-0.08,0.79-0.52,0.71-0.99c0,0,0-0.01,0-0.01
		c-0.61-3.68,2.81-6.83,2.84-6.86c0.28-0.39,0.18-0.94-0.21-1.21c-0.27-0.19-0.62-0.21-0.91-0.06c-0.17,0.15-4.16,3.81-3.39,8.44
		C356.69,433.8,356.98,434.08,357.34,434.13z"/>
	<path class="st4" d="M353.08,433.1c0.09,0.01,0.19,0.01,0.28,0c0.45-0.11,0.73-0.55,0.65-1c-0.75-3.28,2.48-7,2.52-7
		c0.31-0.36,0.28-0.9-0.08-1.22c-0.35-0.32-0.9-0.29-1.21,0.06c0,0,0,0-0.01,0.01c-0.16,0.18-3.86,4.41-2.91,8.57
		C352.43,432.85,352.73,433.08,353.08,433.1z"/>
	<path class="st4" d="M263,426.68l-1.25,3.66c0,0,1.6,6.73,11.54,8.85s15.66,5,20.46,5.78c2.53,0.47,5.09,0.69,7.66,0.68l1.15-1.37
		L263,426.68z"/>
	<path class="st8" d="M321.39,432.45l-18.86,11.83c-8.32-1.6-16.54-3.73-24.59-6.37l0,0c-8.05-2.78-15-6.28-15-10.08
		c0-5.78,6.27-6.69,13.5-5.71c1.35,0.18,2.73,0.43,4.12,0.72c11.47,2.47,26.9-2.38,26.9-2.38L321.39,432.45z"/>
	<g>
		<defs>
			<path id="SVGID_9_" d="M321.39,432.45l-18.86,11.83c-8.32-1.6-16.54-3.73-24.59-6.37l0,0c-8.05-2.78-15-6.28-15-10.08
				c0-5.78,6.27-6.69,13.5-5.71c1.35,0.18,2.73,0.43,4.12,0.72c11.47,2.47,26.9-2.38,26.9-2.38L321.39,432.45z"/>
		</defs>
		<clipPath id="SVGID_10_">
			<use xlink:href="#SVGID_9_"  style="overflow:visible;"/>
		</clipPath>
		<g class="st18">
			<path class="st11" d="M321.39,432.45l-11.09,7c-8.99-2.79-16.88-8.35-22.54-15.87c6.68-0.15,13.32-1.19,19.73-3.09L321.39,432.45
				z"/>
		</g>
	</g>
	<path class="st2" d="M321.39,432.45l-18.86,11.83c-8.32-1.6-16.54-3.73-24.59-6.37l0,0c-8.05-2.78-15-6.28-15-10.08
		c0-5.78,6.27-6.69,13.5-5.71c1.35,0.18,2.73,0.43,4.12,0.72c11.47,2.47,26.9-2.38,26.9-2.38L321.39,432.45z"/>
	<path class="st4" d="M277.94,437.9c-8.05-2.78-15-6.28-15-10.08c0-5.78,6.27-6.69,13.5-5.71C276.76,422.45,283.07,430,277.94,437.9
		z"/>
	<path class="st4" d="M284.58,431.43h-0.05c-0.48-0.03-0.84-0.44-0.82-0.92c-0.02-2.47-0.81-4.87-2.27-6.86
		c-0.33-0.34-0.33-0.9,0.02-1.23c0.34-0.33,0.9-0.33,1.23,0.02c0.04,0.04,0.08,0.09,0.11,0.14c1.73,2.31,2.65,5.12,2.64,8
		C285.43,431.05,285.05,431.43,284.58,431.43z"/>
	<path class="st4" d="M288,432h-0.08c-0.48-0.04-0.83-0.46-0.79-0.94c0.07-2.5-0.59-4.96-1.91-7.09c-0.28-0.4-0.18-0.94,0.22-1.22
		s0.94-0.18,1.22,0.22c1.54,2.45,2.31,5.31,2.2,8.2C288.84,431.63,288.46,432,288,432z"/>
	<path class="st4" d="M292.18,432L292.18,432c-0.48-0.01-0.86-0.4-0.86-0.88c0.06-3.05-2.1-7.18-2.13-7.22
		c-0.22-0.43-0.06-0.95,0.37-1.18c0.43-0.22,0.95-0.05,1.17,0.37c0.1,0.18,2.39,4.56,2.33,8.06
		C293.05,431.63,292.66,432.01,292.18,432z"/>
	<path class="st4" d="M296.12,432h-0.23c-0.46-0.13-0.73-0.61-0.6-1.07c1-3.59-2.07-7.09-2.1-7.12c-0.35-0.33-0.36-0.88-0.03-1.23
		s0.88-0.36,1.23-0.03c0.03,0.03,0.06,0.06,0.09,0.1c0.15,0.17,3.74,4.23,2.48,8.75C296.84,431.76,296.5,432,296.12,432z"/>
	<path class="st4" d="M300.47,431.43c-0.1,0-0.19-0.01-0.28-0.05c-0.45-0.14-0.69-0.62-0.55-1.07c0-0.01,0.01-0.02,0.01-0.03
		c1.09-3.18-1.74-7.21-1.76-7.25c-0.32-0.36-0.29-0.91,0.07-1.23c0.36-0.32,0.91-0.29,1.23,0.07c0.04,0.05,0.08,0.1,0.11,0.16
		c0.14,0.19,3.37,4.79,2,8.83C301.17,431.21,300.84,431.43,300.47,431.43z"/>
	<path class="st4" d="M304.58,436.12c3.09,0.85-1,6.9-5.09,4.5S301.5,435.28,304.58,436.12z"/>
	<path class="st3" d="M268.92,404c4.63,6.49,18.36,13.66,32,19.57c2.44,4.04,5.32,7.8,8.58,11.21c8.42,8.66,11.85,3.81,11.85,3.81
		s5.32-0.6,13.17-1.67c0.67,1.57,2.31,2.48,4,2.23c1-0.16,3-1.62,5.21-3.55c19.83-3,46.74-8,54-13.82"/>
	<path class="st2" d="M390,391.64c-3.43-3.77-6.86-3.94-14.06-3.43c0,0-18.79,6-31.9,13.89s-32.23,16.26-32.23,16.26
		s-5.83-1.69-9.89,0c0,0-2.85,0.22-0.94,5.2"/>
	<path class="st2" d="M398.72,414.17c0,0,0.1,5.81-8.14,9.83"/>
	<path class="st2" d="M307.84,389.93c0,0,13,9.4,15.61,15.6c2.55,1.08,5.02,2.35,7.38,3.81"/>
	<path class="st2" d="M324.39,397.74c0.95,2.7,1.11,5.62,0.46,8.41"/>
	<path class="st2" d="M321.39,391.64c0.71,1.03,1.33,2.12,1.86,3.25"/>
	<path class="st2" d="M339.91,390.78c0,0,4.35,5.82,5.43,10.54"/>
	<path class="st2" d="M364.14,425.94c1.62-0.1,3.23-0.3,4.82-0.6"/>
	<path class="st2" d="M323.33,421.77c12.33,2.44,24.83,3.88,37.39,4.29"/>
	<path class="st4" d="M411.32,333.59c0,0-2.35,41-5.12,43.35s-7.14,3.08-15.41,3.77s-44.85,2.93-44.85,2.93L342,371.89
		c0,0,19.45-2,28.08-5.15c6.51-2.22,13.16-3.98,19.92-5.26c0,0-1.64-10.31-1.64-14.75v-20.88"/>
	<path class="st8" d="M404.12,288.8c8.91,5.49,11.54,18.18,8.46,45.27c0,0,2.63,3.2-1.26,4.8c0,0-14.57-5.45-21.34-1.69
		s-5-5.19-5-5.19s-2.79-24.92,3.38-29.43"/>
	<path class="st9" d="M387.54,298.75c0,0-8.57,8.91-1,31.43c-0.48,1.84-0.81,3.71-1,5.6c0,1.51,2.07,2.29,2.07,2.29"/>
	<path class="st9" d="M377.52,313.84c0,0,0.62,11,7.44,15.77"/>
	<path class="st9" d="M379.72,288.3c0,0-13.29,5.09-23.86-0.55c-6.27-3.34-3.69-8.71-3.69-8.71"/>
	<path class="st19" d="M284.15,391.66h72.34c1.63,0,3.26-0.21,4.84-0.63l14.27-3.74c0.41-0.1,0.69-0.47,0.69-0.89l0,0
		c0-0.51-0.42-0.93-0.93-0.93h-94.2c-0.51,0.01-0.92,0.42-0.92,0.93v1.35C280.24,389.91,281.99,391.66,284.15,391.66L284.15,391.66z
		"/>
	<path class="st20" d="M277,388.06h72.54c0.95,0.04,1.75-0.69,1.8-1.64c0.01-0.23-0.03-0.46-0.11-0.68l-13.45-52.33
		c-0.37-1.32-1.53-2.25-2.9-2.33h-72.56c-0.95-0.04-1.76,0.71-1.8,1.66c-0.01,0.23,0.03,0.46,0.11,0.67l13.46,52.33
		C274.46,387.06,275.63,387.99,277,388.06z"/>
	<line class="st2" x1="264.88" y1="332.94" x2="263.51" y2="332.94"/>
	<line class="st2" x1="275.51" y1="332.94" x2="268.43" y2="332.94"/>
	<path class="st2" d="M347.78,381.45l-11.88-46.18c-0.37-1.31-1.53-2.25-2.89-2.33h-55.9"/>
	<line class="st2" x1="348.81" y1="385.47" x2="348.51" y2="384.32"/>
	<path class="st4" d="M298.81,360.89c0.05,0.42,0.14,0.84,0.26,1.25c0.92,3.15,3.87,5.07,6.58,4.27s4.16-4,3.24-7.15
		s-3.89-5.07-6.6-4.27c-0.32,0.1-0.62,0.23-0.91,0.39C301.68,357.56,300.68,359.72,298.81,360.89z"/>
	<path class="st8" d="M330.83,262.82c-6.28-0.68-9.7-6.65-13.48-7.58c-2.11-0.5-4.18-1.17-6.18-2c0,0-1.3-4.54-3.25-3
		s-4.51,35.5-2,34.43s2.52,2.94,2.52,2.94l23.31,20.54l19.54-34.6C351.29,273.55,337.11,263.51,330.83,262.82z"/>
	<polyline class="st2" points="140.88,141.89 140.88,141.39 141.38,141.39 	"/>
	<line class="st21" x1="144.32" y1="141.39" x2="228.92" y2="141.39"/>
	<polyline class="st2" points="230.38,141.39 230.88,141.39 230.88,141.89 	"/>
	<line class="st22" x1="230.89" y1="144.89" x2="230.89" y2="199.39"/>
	<polyline class="st2" points="230.88,200.89 230.88,201.39 230.38,201.39 	"/>
	<line class="st21" x1="227.45" y1="201.39" x2="142.85" y2="201.39"/>
	<polyline class="st2" points="141.38,201.39 140.88,201.39 140.88,200.89 	"/>
	<line class="st22" x1="140.89" y1="197.89" x2="140.89" y2="143.39"/>
	<circle class="st3" cx="185.89" cy="141.39" r="1.48"/>
	<circle class="st3" cx="140.89" cy="171.39" r="1.48"/>
	<circle class="st3" cx="185.89" cy="201.39" r="1.48"/>
	<circle class="st3" cx="230.89" cy="171.39" r="1.48"/>
	<rect x="229.16" y="199.67" class="st3" width="3.45" height="3.45"/>
	<rect x="229.16" y="139.67" class="st3" width="3.45" height="3.45"/>
	<rect x="139.16" y="199.67" class="st3" width="3.45" height="3.45"/>
	<rect x="139.16" y="139.67" class="st3" width="3.45" height="3.45"/>
	<rect x="146.86" y="146.7" class="st4" width="78.33" height="49.77"/>
	<polygon class="st8" points="225.19,181.77 216.48,190.48 192.92,166.92 183.01,176.83 167.21,161.03 146.86,181.37 146.86,196.47 
		225.19,196.47 	"/>
	<circle class="st8" cx="208.96" cy="160.83" r="5.53"/>
	<path class="st9" d="M335,272c0,0-6,11.17-6.71,28.26"/>
	<path class="st9" d="M317.36,279.73c0,0,1.79,9.5,7,16.38"/>
	<path class="st9" d="M342,318.93c0,0,9,29.56,28.55,38.26"/>
	<path class="st12" d="M365.68,265.42c0,0-0.85,6.45-7.05,6.9c-0.76-1.62-1.69-3.17-2.75-4.61
		C359.1,266.76,362.37,265.99,365.68,265.42z"/>
	<path class="st4" d="M378.89,265.87c0,0,10.37,1.27,14.71-12.65s0.93-24.41-16.23-29.46c-9.52-2.8-19-0.55-22.47,6.66
		c-2.94,6.17-1.55,11.3-2.22,13.37c-0.76,2.32-7.78,4.29-7.78,5.88c0,1.31,3.89,3.55,3.89,3.55l-1.14,3.46l1.07,0.57
		c0,0-2,7.79-1.07,10.54c0.66,2,18.23,2.84,19.6-2.14"/>
	<path class="st2" d="M355,235.47c0,0,3.43,0.86,4.37,2.66"/>
	<path class="st12" d="M355.6,243.38c-0.15,1,0.08,1.87,0.52,1.93s0.9-0.7,1.05-1.71s-0.09-1.87-0.52-1.93
		S355.75,242.37,355.6,243.38z"/>
	<path class="st2" d="M348.72,257.25c0,0,5.58,2.14,7.66,0.85"/>
	<path class="st2" d="M350.68,242.58c-0.41,2.24,0.09,4.2,1.12,4.39s2.21-1.46,2.62-3.69s-0.08-4.21-1.12-4.4
		S351.1,240.35,350.68,242.58z"/>
	<path class="st12" d="M394.06,231.19c-0.84-4.05-3.16-7.64-6.52-10.06c-3.74-2.63-8.03-4.38-12.54-5.13c0,0,3.31,1.45,4.57,3.36
		c0,0-8.57-6.44-18.75-2.21s-8.91,15.22-8.91,15.22l1.48-2.88c0,0-0.17,3.43,1.63,4.69c0.54-1.68,1.27-3.29,2.19-4.8
		c0,0,2.7,8.11,10.13,10.86c-0.5-1.28-0.55-2.69-0.12-4c0,0,4.12,8.91,2.92,13.26l1.31,2.28c0,0,4.73-4.79,8.58-0.8
		c2.21,2.3-4.23,11-5.15,11l3.89,5.71c0,0,9.72,1.39,15.32-9.14s4.23-15,4.23-15s1.83,2.56,2,4
		C400.34,247.53,402,236.22,394.06,231.19z"/>
	<path class="st4" d="M371.19,252.79c0,0,3-10.08,9.38-6.53s1.83,8.93-0.46,11s-4,5.83-5.49,5.83s-1.82-1.83-1.82-1.83"/>
	<line class="st2" x1="354.42" y1="243.28" x2="372.22" y2="246.97"/>
</g>
</svg>
