<?xml version="1.0" encoding="utf-8"?>
<!-- Generator: Adobe Illustrator 23.0.0, SVG Export Plug-In . SVG Version: 6.00 Build 0)  -->
<svg version="1.1" id="Layer_1" xmlns="http://www.w3.org/2000/svg" xmlns:xlink="http://www.w3.org/1999/xlink" x="0px" y="0px"
	 viewBox="0 0 64 64" style="enable-background:new 0 0 64 64;" xml:space="preserve">
<style type="text/css">
	.st0{fill:#34689C;}
</style>
<g id="Product_launching">
	<path class="st0" d="M53.87,12.21c-0.08-0.45-0.24-0.88-0.48-1.27l-4.18-6.57c-0.6-0.95-1.65-1.52-2.77-1.52h-8.41l5.7,9.35H53.87z
		"/>
	<path class="st0" d="M25.77,2.85h-6.88c-1.12,0-2.17,0.57-2.77,1.52l-4.18,6.56c-0.24,0.39-0.41,0.82-0.48,1.27h9.98L25.77,2.85z"
		/>
	<path class="st0" d="M33.76,12.21c0.69,0,1.25,0.56,1.25,1.25s-0.56,1.25-1.25,1.25h-9.75l7.18,20.81
		c0.27,0.79,1.14,1.22,1.93,0.94c0.44-0.15,0.79-0.5,0.94-0.94l7.58-21.92L35.1,2.85h-6.57l-4.34,9.35H33.76z"/>
	<path class="st0" d="M53.16,15.03c0.08-0.1,0.15-0.21,0.22-0.32h-9.49l-6.93,19.11L53.16,15.03z"/>
	<path class="st0" d="M11.95,14.71c0.07,0.11,0.14,0.22,0.22,0.32l16.11,18.76l-6.92-19.08H11.95z"/>
	<path class="st0" d="M16.82,40.41h-5.84c-0.51,0-0.93,0.42-0.93,0.93l0,0v19.95c0,0.51,0.42,0.93,0.93,0.93c0,0,0,0,0,0h5.84
		c1.12,0,2.03-0.91,2.03-2.03c0,0,0,0,0,0V42.44C18.84,41.32,17.94,40.41,16.82,40.41z"/>
	<path class="st0" d="M53.75,42.7c-0.65-0.99-1.75-1.58-2.93-1.58h-2.29c-2.05,0-3.91,1.24-4.69,3.14c-0.21,0.5-0.5,0.97-0.86,1.38
		c-1.34,2.16-3.66,3.53-6.21,3.64h-6.79c-0.75-0.02-1.33-0.64-1.32-1.38c0.02-0.72,0.6-1.3,1.32-1.32h6.75
		c1.03-0.03,2.02-0.42,2.8-1.09c-0.18-2.47-2.25-4.37-4.72-4.36h-4.98c-1.87-0.01-3.66,0.74-4.98,2.06l-0.13,0.13
		c-0.88,0.88-1.99,1.48-3.2,1.73v13.54h17.97c5.55,0,10.56-3.3,12.75-8.4l1.79-4.16C54.51,44.93,54.4,43.68,53.75,42.7z"/>
</g>
</svg>
