<?xml version="1.0" encoding="utf-8"?>
<!-- Generator: Adobe Illustrator 23.0.0, SVG Export Plug-In . SVG Version: 6.00 Build 0)  -->
<svg version="1.1" id="Layer_1" xmlns="http://www.w3.org/2000/svg" xmlns:xlink="http://www.w3.org/1999/xlink" x="0px" y="0px"
	 viewBox="0 0 24 24" style="enable-background:new 0 0 24 24;" xml:space="preserve">
<style type="text/css">
	.st0{fill:#34689C;}
</style>
<path class="st0" d="M21.82,12.43c-0.08-0.12-2.06-2.94-4.79-4.88C15.61,6.55,13.83,6,12,6c-1.82,0-3.61,0.55-5.03,1.55
	c-2.73,1.93-4.71,4.76-4.79,4.88c-0.24,0.34-0.24,0.8,0,1.14c0.08,0.12,2.06,2.94,4.79,4.87C8.39,19.45,10.18,20,12,20
	c1.83,0,3.61-0.55,5.03-1.56c2.73-1.93,4.71-4.76,4.79-4.87C22.06,13.23,22.06,12.77,21.82,12.43z M12,16.5
	c-1.93,0-3.5-1.57-3.5-3.5c0-1.93,1.57-3.5,3.5-3.5c1.93,0,3.5,1.57,3.5,3.5C15.5,14.93,13.93,16.5,12,16.5z"/>
<g>
	<path class="st0" d="M14,13c0,1.1-0.9,2-2,2c-1.1,0-2-0.9-2-2c0-1.1,0.9-2,2-2C13.1,11,14,11.89,14,13z"/>
</g>
</svg>
